<?xml version="1.0" encoding="UTF-8" standalone="no"?>
<!DOCTYPE svg PUBLIC "-//W3C//DTD SVG 1.1//EN"
 "http://www.w3.org/Graphics/SVG/1.1/DTD/svg11.dtd">
<!-- Generated by graphviz version 2.43.0 (0)
 -->
<!-- Title: vtree Pages: 1 -->
<svg width="134pt" height="124pt"
 viewBox="0.00 0.00 134.00 124.00" xmlns="http://www.w3.org/2000/svg" xmlns:xlink="http://www.w3.org/1999/xlink">
<g id="graph0" class="graph" transform="scale(1 1) rotate(0) translate(4 120)">
<title>vtree</title>
<polygon fill="white" stroke="transparent" points="-4,4 -4,-120 130,-120 130,4 -4,4"/>
<!-- n3 -->
<g id="node1" class="node">
<title>n3</title>
<text text-anchor="middle" x="63" y="-106.4" font-family="Times" font-size="12.00">3</text>
</g>
<!-- n1 -->
<g id="node2" class="node">
<title>n1</title>
<text text-anchor="middle" x="45" y="-57.4" font-family="Times" font-size="12.00">1</text>
</g>
<!-- n3&#45;&gt;n1 -->
<g id="edge1" class="edge">
<title>n3&#45;&gt;n1</title>
<path fill="none" stroke="black" d="M60.79,-102.74C57.3,-93.62 50.55,-75.98 47.11,-67.02"/>
</g>
<!-- n5 -->
<g id="node5" class="node">
<title>n5</title>
<text text-anchor="middle" x="81" y="-57.4" font-family="Times" font-size="12.00">5</text>
</g>
<!-- n3&#45;&gt;n5 -->
<g id="edge4" class="edge">
<title>n3&#45;&gt;n5</title>
<path fill="none" stroke="black" d="M65.21,-102.74C68.7,-93.62 75.45,-75.98 78.89,-67.02"/>
</g>
<!-- n0 -->
<g id="node3" class="node">
<title>n0</title>
<text text-anchor="middle" x="9" y="-5.3" font-family="Times,serif" font-style="italic" font-size="14.00">A</text>
</g>
<!-- n1&#45;&gt;n0 -->
<g id="edge2" class="edge">
<title>n1&#45;&gt;n0</title>
<path fill="none" stroke="black" d="M40.87,-53.82C34.52,-45.09 22.31,-28.31 14.99,-18.24"/>
<text text-anchor="middle" x="11.99" y="-21.24" font-family="Times" font-size="10.00">0</text>
</g>
<!-- n2 -->
<g id="node4" class="node">
<title>n2</title>
<text text-anchor="middle" x="45" y="-5.3" font-family="Times,serif" font-style="italic" font-size="14.00">B</text>
</g>
<!-- n1&#45;&gt;n2 -->
<g id="edge3" class="edge">
<title>n1&#45;&gt;n2</title>
<path fill="none" stroke="black" d="M45,-53.82C45,-45.09 45,-28.31 45,-18.24"/>
<text text-anchor="middle" x="42" y="-21.24" font-family="Times" font-size="10.00">2</text>
</g>
<!-- n4 -->
<g id="node6" class="node">
<title>n4</title>
<text text-anchor="middle" x="81" y="-5.3" font-family="Times,serif" font-style="italic" font-size="14.00">C</text>
</g>
<!-- n5&#45;&gt;n4 -->
<g id="edge5" class="edge">
<title>n5&#45;&gt;n4</title>
<path fill="none" stroke="black" d="M81,-53.82C81,-45.09 81,-28.31 81,-18.24"/>
<text text-anchor="middle" x="78" y="-21.24" font-family="Times" font-size="10.00">4</text>
</g>
<!-- n6 -->
<g id="node7" class="node">
<title>n6</title>
<text text-anchor="middle" x="117" y="-5.3" font-family="Times,serif" font-style="italic" font-size="14.00">D</text>
</g>
<!-- n5&#45;&gt;n6 -->
<g id="edge6" class="edge">
<title>n5&#45;&gt;n6</title>
<path fill="none" stroke="black" d="M85.13,-53.82C91.48,-45.09 103.69,-28.31 111.01,-18.24"/>
<text text-anchor="middle" x="108.01" y="-21.24" font-family="Times" font-size="10.00">6</text>
</g>
</g>
</svg>
