<?xml version="1.0" encoding="UTF-8" standalone="no"?>
<!DOCTYPE svg PUBLIC "-//W3C//DTD SVG 1.1//EN"
 "http://www.w3.org/Graphics/SVG/1.1/DTD/svg11.dtd">
<!-- Generated by graphviz version 2.43.0 (0)
 -->
<!-- Title: sdd Pages: 1 -->
<svg width="380pt" height="236pt"
 viewBox="0.00 0.00 380.00 235.54" xmlns="http://www.w3.org/2000/svg" xmlns:xlink="http://www.w3.org/1999/xlink">
<g id="graph0" class="graph" transform="scale(1 1) rotate(0) translate(4 231.54)">
<title>sdd</title>
<polygon fill="white" stroke="transparent" points="-4,4 -4,-231.54 376,-231.54 376,4 -4,4"/>
<!-- n16 -->
<g id="node1" class="node">
<title>n16</title>
<ellipse fill="#f2f2f2" stroke="black" cx="88.5" cy="-77.38" rx="18.27" ry="18.27"/>
<text text-anchor="middle" x="88.5" y="-73.68" font-family="Times,serif" font-size="14.00">5</text>
</g>
<!-- n16e0 -->
<g id="node5" class="node">
<title>n16e0</title>
<polygon fill="white" stroke="black" points="0,-0.5 0,-22.5 47,-22.5 47,-0.5 0,-0.5"/>
<text text-anchor="middle" x="12" y="-6.5" font-family="Times,serif" font-style="italic" font-size="20.00">C</text>
<polyline fill="none" stroke="black" points="24,-0.5 24,-22.5 "/>
<text text-anchor="middle" x="35.5" y="-6.5" font-family="Times,serif" font-style="italic" font-size="20.00">D</text>
</g>
<!-- n16&#45;&gt;n16e0 -->
<g id="edge1" class="edge">
<title>n16&#45;&gt;n16e0</title>
<path fill="none" stroke="black" d="M75.66,-63.76C64.62,-52.92 48.74,-37.31 37.41,-26.17"/>
<polygon fill="black" stroke="black" points="38.55,-24.83 33.75,-22.58 36.09,-27.33 38.55,-24.83"/>
</g>
<!-- n16e1 -->
<g id="node6" class="node">
<title>n16e1</title>
<polygon fill="white" stroke="black" points="65,-0.5 65,-22.5 112,-22.5 112,-0.5 65,-0.5"/>
<text text-anchor="middle" x="80" y="-6.5" font-family="Times,serif" font-style="italic" font-size="20.00">¬C</text>
<polyline fill="none" stroke="black" points="95,-0.5 95,-22.5 "/>
<text text-anchor="middle" x="103.5" y="-6.5" font-family="Times,serif" font-style="italic" font-size="20.00">0</text>
</g>
<!-- n16&#45;&gt;n16e1 -->
<g id="edge2" class="edge">
<title>n16&#45;&gt;n16e1</title>
<path fill="none" stroke="black" d="M88.5,-58.93C88.5,-49.17 88.5,-37.12 88.5,-27.74"/>
<polygon fill="black" stroke="black" points="90.25,-27.57 88.5,-22.57 86.75,-27.57 90.25,-27.57"/>
</g>
<!-- n17 -->
<g id="node2" class="node">
<title>n17</title>
<ellipse fill="#f2f2f2" stroke="black" cx="183.5" cy="-209.15" rx="18.27" ry="18.27"/>
<text text-anchor="middle" x="183.5" y="-205.45" font-family="Times,serif" font-size="14.00">3</text>
</g>
<!-- n17e0 -->
<g id="node7" class="node">
<title>n17e0</title>
<polygon fill="white" stroke="black" points="79,-132.27 79,-154.27 126,-154.27 126,-132.27 79,-132.27"/>
<text text-anchor="middle" x="97" y="-138.27" font-family="Times,serif" font-style="italic" font-size="20.00">¬B</text>
<polyline fill="none" stroke="black" points="115,-132.27 115,-154.27 "/>
<text text-anchor="middle" x="120.5" y="-138.27" font-family="Times,serif" font-style="italic" font-size="20.00"> </text>
</g>
<!-- n17&#45;&gt;n17e0 -->
<g id="edge3" class="edge">
<title>n17&#45;&gt;n17e0</title>
<path fill="none" stroke="black" d="M169.39,-197.03C155.47,-186.05 134.18,-169.26 119.37,-157.58"/>
<polygon fill="black" stroke="black" points="120.39,-156.15 115.38,-154.43 118.22,-158.9 120.39,-156.15"/>
</g>
<!-- n17e1 -->
<g id="node8" class="node">
<title>n17e1</title>
<polygon fill="white" stroke="black" points="160,-132.27 160,-154.27 207,-154.27 207,-132.27 160,-132.27"/>
<text text-anchor="middle" x="169.5" y="-138.27" font-family="Times,serif" font-style="italic" font-size="20.00"> </text>
<polyline fill="none" stroke="black" points="179,-132.27 179,-154.27 "/>
<text text-anchor="middle" x="193" y="-138.27" font-family="Times,serif" font-style="italic" font-size="20.00">C</text>
</g>
<!-- n17&#45;&gt;n17e1 -->
<g id="edge5" class="edge">
<title>n17&#45;&gt;n17e1</title>
<path fill="none" stroke="black" d="M183.5,-190.7C183.5,-180.94 183.5,-168.89 183.5,-159.51"/>
<polygon fill="black" stroke="black" points="185.25,-159.34 183.5,-154.34 181.75,-159.34 185.25,-159.34"/>
</g>
<!-- n17e2 -->
<g id="node9" class="node">
<title>n17e2</title>
<polygon fill="white" stroke="black" points="258,-132.27 258,-154.27 305,-154.27 305,-132.27 258,-132.27"/>
<text text-anchor="middle" x="267" y="-138.27" font-family="Times,serif" font-style="italic" font-size="20.00"> </text>
<polyline fill="none" stroke="black" points="276,-132.27 276,-154.27 "/>
<text text-anchor="middle" x="290.5" y="-138.27" font-family="Times,serif" font-style="italic" font-size="20.00">1</text>
</g>
<!-- n17&#45;&gt;n17e2 -->
<g id="edge7" class="edge">
<title>n17&#45;&gt;n17e2</title>
<path fill="none" stroke="black" d="M198.81,-198.17C215.69,-187.17 242.89,-169.44 261.45,-157.34"/>
<polygon fill="black" stroke="black" points="262.74,-158.59 265.97,-154.39 260.83,-155.66 262.74,-158.59"/>
</g>
<!-- n14 -->
<g id="node3" class="node">
<title>n14</title>
<ellipse fill="#f2f2f2" stroke="black" cx="169.5" cy="-77.38" rx="18.27" ry="18.27"/>
<text text-anchor="middle" x="169.5" y="-73.68" font-family="Times,serif" font-size="14.00">1</text>
</g>
<!-- n14e0 -->
<g id="node10" class="node">
<title>n14e0</title>
<polygon fill="white" stroke="black" points="130,-0.5 130,-22.5 177,-22.5 177,-0.5 130,-0.5"/>
<text text-anchor="middle" x="145.5" y="-6.5" font-family="Times,serif" font-style="italic" font-size="20.00">¬A</text>
<polyline fill="none" stroke="black" points="161,-0.5 161,-22.5 "/>
<text text-anchor="middle" x="169" y="-6.5" font-family="Times,serif" font-style="italic" font-size="20.00">B</text>
</g>
<!-- n14&#45;&gt;n14e0 -->
<g id="edge9" class="edge">
<title>n14&#45;&gt;n14e0</title>
<path fill="none" stroke="black" d="M165.21,-59.26C162.74,-49.41 159.67,-37.14 157.29,-27.64"/>
<polygon fill="black" stroke="black" points="158.96,-27.1 156.05,-22.68 155.57,-27.95 158.96,-27.1"/>
</g>
<!-- n14e1 -->
<g id="node11" class="node">
<title>n14e1</title>
<polygon fill="white" stroke="black" points="195,-0.5 195,-22.5 242,-22.5 242,-0.5 195,-0.5"/>
<text text-anchor="middle" x="206" y="-6.5" font-family="Times,serif" font-style="italic" font-size="20.00">A</text>
<polyline fill="none" stroke="black" points="217,-0.5 217,-22.5 "/>
<text text-anchor="middle" x="229.5" y="-6.5" font-family="Times,serif" font-style="italic" font-size="20.00">0</text>
</g>
<!-- n14&#45;&gt;n14e1 -->
<g id="edge10" class="edge">
<title>n14&#45;&gt;n14e1</title>
<path fill="none" stroke="black" d="M180.37,-62.21C188.44,-51.69 199.39,-37.41 207.49,-26.86"/>
<polygon fill="black" stroke="black" points="208.89,-27.9 210.55,-22.87 206.12,-25.77 208.89,-27.9"/>
</g>
<!-- n11 -->
<g id="node4" class="node">
<title>n11</title>
<ellipse fill="#f2f2f2" stroke="black" cx="283.5" cy="-77.38" rx="18.27" ry="18.27"/>
<text text-anchor="middle" x="283.5" y="-73.68" font-family="Times,serif" font-size="14.00">1</text>
</g>
<!-- n11e0 -->
<g id="node12" class="node">
<title>n11e0</title>
<polygon fill="white" stroke="black" points="260,-0.5 260,-22.5 307,-22.5 307,-0.5 260,-0.5"/>
<text text-anchor="middle" x="271.5" y="-6.5" font-family="Times,serif" font-style="italic" font-size="20.00">A</text>
<polyline fill="none" stroke="black" points="283,-0.5 283,-22.5 "/>
<text text-anchor="middle" x="295" y="-6.5" font-family="Times,serif" font-style="italic" font-size="20.00">B</text>
</g>
<!-- n11&#45;&gt;n11e0 -->
<g id="edge11" class="edge">
<title>n11&#45;&gt;n11e0</title>
<path fill="none" stroke="black" d="M283.5,-58.93C283.5,-49.17 283.5,-37.12 283.5,-27.74"/>
<polygon fill="black" stroke="black" points="285.25,-27.57 283.5,-22.57 281.75,-27.57 285.25,-27.57"/>
</g>
<!-- n11e1 -->
<g id="node13" class="node">
<title>n11e1</title>
<polygon fill="white" stroke="black" points="325,-0.5 325,-22.5 372,-22.5 372,-0.5 325,-0.5"/>
<text text-anchor="middle" x="340" y="-6.5" font-family="Times,serif" font-style="italic" font-size="20.00">¬A</text>
<polyline fill="none" stroke="black" points="355,-0.5 355,-22.5 "/>
<text text-anchor="middle" x="363.5" y="-6.5" font-family="Times,serif" font-style="italic" font-size="20.00">0</text>
</g>
<!-- n11&#45;&gt;n11e1 -->
<g id="edge12" class="edge">
<title>n11&#45;&gt;n11e1</title>
<path fill="none" stroke="black" d="M296.34,-63.76C307.38,-52.92 323.26,-37.31 334.59,-26.17"/>
<polygon fill="black" stroke="black" points="335.91,-27.33 338.25,-22.58 333.45,-24.83 335.91,-27.33"/>
</g>
<!-- n17e0&#45;&gt;n16 -->
<g id="edge4" class="edge">
<title>n17e0:c&#45;&gt;n16</title>
<path fill="none" stroke="black" d="M118.72,-139.65C114.93,-131.97 105.84,-113.55 98.62,-98.89"/>
<ellipse fill="black" stroke="black" cx="119.62" cy="-141.48" rx="2" ry="2"/>
<polygon fill="black" stroke="black" points="100.03,-97.8 96.25,-94.09 96.89,-99.35 100.03,-97.8"/>
</g>
<!-- n17e1&#45;&gt;n14 -->
<g id="edge6" class="edge">
<title>n17e1:c&#45;&gt;n14</title>
<path fill="none" stroke="black" d="M169.5,-139.09C169.5,-131.52 169.5,-115.02 169.5,-101.14"/>
<ellipse fill="black" stroke="black" cx="169.5" cy="-141.27" rx="2" ry="2"/>
<polygon fill="black" stroke="black" points="171.25,-100.77 169.5,-95.77 167.75,-100.77 171.25,-100.77"/>
</g>
<!-- n17e2&#45;&gt;n11 -->
<g id="edge8" class="edge">
<title>n17e2:c&#45;&gt;n11</title>
<path fill="none" stroke="black" d="M267.54,-139.31C269.53,-131.72 274,-114.64 277.71,-100.49"/>
<ellipse fill="black" stroke="black" cx="267.01" cy="-141.33" rx="2" ry="2"/>
<polygon fill="black" stroke="black" points="279.46,-100.71 279.03,-95.43 276.07,-99.83 279.46,-100.71"/>
</g>
</g>
</svg>
