<?xml version="1.0" encoding="UTF-8" standalone="no"?>
<!DOCTYPE svg PUBLIC "-//W3C//DTD SVG 1.1//EN"
 "http://www.w3.org/Graphics/SVG/1.1/DTD/svg11.dtd">
<!-- Generated by graphviz version 2.43.0 (0)
 -->
<!-- Title: sdd Pages: 1 -->
<svg width="155pt" height="367pt"
 viewBox="0.00 0.00 155.00 367.31" xmlns="http://www.w3.org/2000/svg" xmlns:xlink="http://www.w3.org/1999/xlink">
<g id="graph0" class="graph" transform="scale(1 1) rotate(0) translate(4 363.31)">
<title>sdd</title>
<polygon fill="white" stroke="transparent" points="-4,4 -4,-363.31 151,-363.31 151,4 -4,4"/>
<!-- n12 -->
<g id="node1" class="node">
<title>n12</title>
<ellipse fill="#f2f2f2" stroke="black" cx="90.5" cy="-77.38" rx="18.27" ry="18.27"/>
<text text-anchor="middle" x="90.5" y="-73.68" font-family="Times,serif" font-size="14.00">5</text>
</g>
<!-- n12e0 -->
<g id="node4" class="node">
<title>n12e0</title>
<polygon fill="white" stroke="black" points="35,-0.5 35,-22.5 82,-22.5 82,-0.5 35,-0.5"/>
<text text-anchor="middle" x="47" y="-6.5" font-family="Times,serif" font-style="italic" font-size="20.00">C</text>
<polyline fill="none" stroke="black" points="59,-0.5 59,-22.5 "/>
<text text-anchor="middle" x="70.5" y="-6.5" font-family="Times,serif" font-style="italic" font-size="20.00">D</text>
</g>
<!-- n12&#45;&gt;n12e0 -->
<g id="edge1" class="edge">
<title>n12&#45;&gt;n12e0</title>
<path fill="none" stroke="black" d="M82.59,-60.59C77.5,-50.43 70.93,-37.31 65.93,-27.34"/>
<polygon fill="black" stroke="black" points="67.43,-26.42 63.62,-22.73 64.3,-27.98 67.43,-26.42"/>
</g>
<!-- n12e1 -->
<g id="node5" class="node">
<title>n12e1</title>
<polygon fill="white" stroke="black" points="100,-0.5 100,-22.5 147,-22.5 147,-0.5 100,-0.5"/>
<text text-anchor="middle" x="115" y="-6.5" font-family="Times,serif" font-style="italic" font-size="20.00">¬C</text>
<polyline fill="none" stroke="black" points="130,-0.5 130,-22.5 "/>
<text text-anchor="middle" x="138.5" y="-6.5" font-family="Times,serif" font-style="italic" font-size="20.00">0</text>
</g>
<!-- n12&#45;&gt;n12e1 -->
<g id="edge2" class="edge">
<title>n12&#45;&gt;n12e1</title>
<path fill="none" stroke="black" d="M98.66,-60.59C103.91,-50.43 110.68,-37.31 115.83,-27.34"/>
<polygon fill="black" stroke="black" points="117.48,-27.97 118.22,-22.73 114.37,-26.37 117.48,-27.97"/>
</g>
<!-- n13 -->
<g id="node2" class="node">
<title>n13</title>
<ellipse fill="#f2f2f2" stroke="black" cx="62.5" cy="-209.15" rx="18.27" ry="18.27"/>
<text text-anchor="middle" x="62.5" y="-205.45" font-family="Times,serif" font-size="14.00">3</text>
</g>
<!-- n13e0 -->
<g id="node6" class="node">
<title>n13e0</title>
<polygon fill="white" stroke="black" points="0,-132.27 0,-154.27 47,-154.27 47,-132.27 0,-132.27"/>
<text text-anchor="middle" x="18" y="-138.27" font-family="Times,serif" font-style="italic" font-size="20.00">¬B</text>
<polyline fill="none" stroke="black" points="36,-132.27 36,-154.27 "/>
<text text-anchor="middle" x="41.5" y="-138.27" font-family="Times,serif" font-style="italic" font-size="20.00"> </text>
</g>
<!-- n13&#45;&gt;n13e0 -->
<g id="edge3" class="edge">
<title>n13&#45;&gt;n13e0</title>
<path fill="none" stroke="black" d="M53.26,-193.01C46.93,-182.65 38.58,-168.98 32.34,-158.76"/>
<polygon fill="black" stroke="black" points="33.74,-157.68 29.64,-154.32 30.75,-159.5 33.74,-157.68"/>
</g>
<!-- n13e1 -->
<g id="node7" class="node">
<title>n13e1</title>
<polygon fill="white" stroke="black" points="65,-132.27 65,-154.27 112,-154.27 112,-132.27 65,-132.27"/>
<text text-anchor="middle" x="76" y="-138.27" font-family="Times,serif" font-style="italic" font-size="20.00">B</text>
<polyline fill="none" stroke="black" points="87,-132.27 87,-154.27 "/>
<text text-anchor="middle" x="99.5" y="-138.27" font-family="Times,serif" font-style="italic" font-size="20.00">1</text>
</g>
<!-- n13&#45;&gt;n13e1 -->
<g id="edge5" class="edge">
<title>n13&#45;&gt;n13e1</title>
<path fill="none" stroke="black" d="M69.2,-191.7C73.3,-181.63 78.5,-168.84 82.47,-159.08"/>
<polygon fill="black" stroke="black" points="84.16,-159.58 84.42,-154.29 80.92,-158.26 84.16,-159.58"/>
</g>
<!-- n14 -->
<g id="node3" class="node">
<title>n14</title>
<ellipse fill="#f2f2f2" stroke="black" cx="85.5" cy="-340.92" rx="18.27" ry="18.27"/>
<text text-anchor="middle" x="85.5" y="-337.22" font-family="Times,serif" font-size="14.00">1</text>
</g>
<!-- n14e0 -->
<g id="node8" class="node">
<title>n14e0</title>
<polygon fill="white" stroke="black" points="36,-264.04 36,-286.04 83,-286.04 83,-264.04 36,-264.04"/>
<text text-anchor="middle" x="50" y="-270.04" font-family="Times,serif" font-style="italic" font-size="20.00">A</text>
<polyline fill="none" stroke="black" points="64,-264.04 64,-286.04 "/>
<text text-anchor="middle" x="73.5" y="-270.04" font-family="Times,serif" font-style="italic" font-size="20.00"> </text>
</g>
<!-- n14&#45;&gt;n14e0 -->
<g id="edge6" class="edge">
<title>n14&#45;&gt;n14e0</title>
<path fill="none" stroke="black" d="M78.8,-323.47C74.7,-313.4 69.5,-300.61 65.53,-290.85"/>
<polygon fill="black" stroke="black" points="67.08,-290.03 63.58,-286.06 63.84,-291.35 67.08,-290.03"/>
</g>
<!-- n14e1 -->
<g id="node9" class="node">
<title>n14e1</title>
<polygon fill="white" stroke="black" points="99,-198.15 99,-220.15 146,-220.15 146,-198.15 99,-198.15"/>
<text text-anchor="middle" x="117" y="-204.15" font-family="Times,serif" font-style="italic" font-size="20.00">¬A</text>
<polyline fill="none" stroke="black" points="135,-198.15 135,-220.15 "/>
<text text-anchor="middle" x="140.5" y="-204.15" font-family="Times,serif" font-style="italic" font-size="20.00"> </text>
</g>
<!-- n14&#45;&gt;n14e1 -->
<g id="edge8" class="edge">
<title>n14&#45;&gt;n14e1</title>
<path fill="none" stroke="black" d="M90.34,-322.96C97.62,-297.43 111.27,-249.54 118.21,-225.2"/>
<polygon fill="black" stroke="black" points="119.9,-225.66 119.59,-220.37 116.53,-224.7 119.9,-225.66"/>
</g>
<!-- n13e0&#45;&gt;n12 -->
<g id="edge4" class="edge">
<title>n13e0:c&#45;&gt;n12</title>
<path fill="none" stroke="black" d="M42.91,-139.3C43.79,-137.02 45.04,-134.15 46.5,-131.77 54.59,-118.57 65.69,-105.13 74.71,-95.04"/>
<ellipse fill="black" stroke="black" cx="42.17" cy="-141.38" rx="2" ry="2"/>
<polygon fill="black" stroke="black" points="76.12,-96.08 78.18,-91.2 73.53,-93.73 76.12,-96.08"/>
</g>
<!-- n14e0&#45;&gt;n13 -->
<g id="edge7" class="edge">
<title>n14e0:c&#45;&gt;n13</title>
<path fill="none" stroke="black" d="M72.79,-270.86C71.5,-263.22 68.66,-246.5 66.29,-232.54"/>
<ellipse fill="black" stroke="black" cx="73.17" cy="-273.07" rx="2" ry="2"/>
<polygon fill="black" stroke="black" points="68.01,-232.18 65.45,-227.54 64.56,-232.76 68.01,-232.18"/>
</g>
<!-- n14e1&#45;&gt;n12 -->
<g id="edge9" class="edge">
<title>n14e1:c&#45;&gt;n12</title>
<path fill="none" stroke="black" d="M139.85,-205.18C137.87,-193.56 131.37,-158.8 120.5,-131.77 115.75,-119.97 108.89,-107.53 102.92,-97.64"/>
<ellipse fill="black" stroke="black" cx="140.18" cy="-207.18" rx="2" ry="2"/>
<polygon fill="black" stroke="black" points="104.36,-96.63 100.26,-93.28 101.37,-98.46 104.36,-96.63"/>
</g>
</g>
</svg>
