<?xml version="1.0" encoding="UTF-8" standalone="no"?>
<!DOCTYPE svg PUBLIC "-//W3C//DTD SVG 1.1//EN"
 "http://www.w3.org/Graphics/SVG/1.1/DTD/svg11.dtd">
<!-- Generated by graphviz version 2.43.0 (0)
 -->
<!-- Title: vtree Pages: 1 -->
<svg width="95pt" height="183pt"
 viewBox="0.00 0.00 95.00 183.00" xmlns="http://www.w3.org/2000/svg" xmlns:xlink="http://www.w3.org/1999/xlink">
<g id="graph0" class="graph" transform="scale(1 1) rotate(0) translate(4 179)">
<title>vtree</title>
<polygon fill="white" stroke="transparent" points="-4,4 -4,-179 91,-179 91,4 -4,4"/>
<!-- n1 -->
<g id="node1" class="node">
<title>n1</title>
<text text-anchor="middle" x="26" y="-165.4" font-family="Times" font-size="12.00">1</text>
</g>
<!-- n0 -->
<g id="node2" class="node">
<title>n0</title>
<text text-anchor="middle" x="9" y="-113.3" font-family="Times,serif" font-style="italic" font-size="14.00">A</text>
</g>
<!-- n1&#45;&gt;n0 -->
<g id="edge1" class="edge">
<title>n1&#45;&gt;n0</title>
<path fill="none" stroke="black" d="M24.05,-161.82C21.05,-153.09 15.29,-136.31 11.83,-126.24"/>
<text text-anchor="middle" x="8.83" y="-129.24" font-family="Times" font-size="10.00">0</text>
</g>
<!-- n3 -->
<g id="node3" class="node">
<title>n3</title>
<text text-anchor="middle" x="43" y="-113.9" font-family="Times" font-size="12.00">3</text>
</g>
<!-- n1&#45;&gt;n3 -->
<g id="edge2" class="edge">
<title>n1&#45;&gt;n3</title>
<path fill="none" stroke="black" d="M27.95,-161.82C31.23,-152.27 37.81,-133.12 41.07,-123.61"/>
</g>
<!-- n2 -->
<g id="node4" class="node">
<title>n2</title>
<text text-anchor="middle" x="26" y="-59.3" font-family="Times,serif" font-style="italic" font-size="14.00">B</text>
</g>
<!-- n3&#45;&gt;n2 -->
<g id="edge3" class="edge">
<title>n3&#45;&gt;n2</title>
<path fill="none" stroke="black" d="M41.18,-110.44C38.17,-101.21 32.12,-82.72 28.64,-72.07"/>
<text text-anchor="middle" x="25.64" y="-75.07" font-family="Times" font-size="10.00">2</text>
</g>
<!-- n5 -->
<g id="node5" class="node">
<title>n5</title>
<text text-anchor="middle" x="60" y="-59.9" font-family="Times" font-size="12.00">5</text>
</g>
<!-- n3&#45;&gt;n5 -->
<g id="edge4" class="edge">
<title>n3&#45;&gt;n5</title>
<path fill="none" stroke="black" d="M44.82,-110.44C48.07,-100.48 54.86,-79.72 58.14,-69.68"/>
</g>
<!-- n4 -->
<g id="node6" class="node">
<title>n4</title>
<text text-anchor="middle" x="42" y="-5.3" font-family="Times,serif" font-style="italic" font-size="14.00">C</text>
</g>
<!-- n5&#45;&gt;n4 -->
<g id="edge5" class="edge">
<title>n5&#45;&gt;n4</title>
<path fill="none" stroke="black" d="M58.07,-56.44C54.88,-47.21 48.48,-28.72 44.79,-18.07"/>
<text text-anchor="middle" x="41.79" y="-21.07" font-family="Times" font-size="10.00">4</text>
</g>
<!-- n6 -->
<g id="node7" class="node">
<title>n6</title>
<text text-anchor="middle" x="78" y="-5.3" font-family="Times,serif" font-style="italic" font-size="14.00">D</text>
</g>
<!-- n5&#45;&gt;n6 -->
<g id="edge6" class="edge">
<title>n5&#45;&gt;n6</title>
<path fill="none" stroke="black" d="M61.93,-56.44C65.12,-47.21 71.52,-28.72 75.21,-18.07"/>
<text text-anchor="middle" x="72.21" y="-21.07" font-family="Times" font-size="10.00">6</text>
</g>
</g>
</svg>
